<svg width="44" height="44" viewBox="0 0 44 44" fill="none" xmlns="http://www.w3.org/2000/svg">
<path d="M27.359 15.6311H16.6413C14.5385 15.6311 12.8335 17.3178 12.8335 19.3968V24.6951C12.8335 26.7759 14.5385 28.4608 16.6413 28.4608H27.359C29.4618 28.4608 31.1668 26.7741 31.1668 24.6951V19.3968C31.1668 17.3159 29.4618 15.6311 27.359 15.6311ZM24.785 22.3044L19.7708 24.6694C19.7402 24.6839 19.7063 24.6905 19.6725 24.6884C19.6386 24.6863 19.6058 24.6758 19.5771 24.6577C19.5484 24.6396 19.5247 24.6146 19.5083 24.5849C19.4918 24.5552 19.4831 24.5219 19.483 24.4879V19.6113C19.4833 19.5769 19.4924 19.5432 19.5094 19.5133C19.5264 19.4835 19.5507 19.4584 19.5801 19.4406C19.6095 19.4228 19.6429 19.4128 19.6773 19.4115C19.7116 19.4103 19.7457 19.4178 19.7763 19.4334L24.7887 21.9451C24.8216 21.9623 24.8492 21.9883 24.8683 22.0202C24.8874 22.0521 24.8973 22.0887 24.8969 22.1259C24.8965 22.1631 24.8859 22.1994 24.8661 22.2309C24.8464 22.2625 24.8183 22.2879 24.785 22.3044Z" fill="#D9D9D9"/>
<path d="M22 40C31.9414 40 40 31.9414 40 22C40 12.0586 31.9414 4 22 4C12.0586 4 4 12.0586 4 22C4 31.9414 12.0586 40 22 40Z" stroke="#D9D9D9" stroke-width="2" stroke-linecap="round" stroke-linejoin="round"/>
</svg>
