<svg width="44" height="44" viewBox="0 0 44 44" fill="none" xmlns="http://www.w3.org/2000/svg">
<path d="M22 40C31.9414 40 40 31.9414 40 22C40 12.0586 31.9414 4 22 4C12.0586 4 4 12.0586 4 22C4 31.9414 12.0586 40 22 40Z" stroke="#D9D9D9" stroke-width="2" stroke-linecap="round" stroke-linejoin="round"/>
<path fill-rule="evenodd" clip-rule="evenodd" d="M30.5413 17.8126C30.6796 17.3446 30.5413 17 29.8788 17H27.6913C27.1347 17 26.878 17.2974 26.7388 17.6257C26.7388 17.6257 25.6264 20.3651 24.0506 22.1446C23.5406 22.6606 23.3089 22.8243 23.0306 22.8243C22.8914 22.8243 22.6823 22.6606 22.6823 22.1917V17.8126C22.6823 17.2503 22.5289 17 22.0656 17H18.6257C18.2782 17 18.069 17.2606 18.069 17.5083C18.069 18.0406 18.8573 18.164 18.9382 19.6623V22.9177C18.9382 23.6317 18.8107 23.7611 18.5323 23.7611C17.7907 23.7611 15.9866 21.0089 14.9158 17.8597C14.7083 17.2469 14.4983 17 13.9391 17H11.75C11.125 17 11 17.2974 11 17.6257C11 18.2103 11.7417 21.1143 14.4541 24.9551C16.2624 27.578 18.8082 29 21.1273 29C22.5181 29 22.6898 28.6846 22.6898 28.1403V26.1577C22.6898 25.526 22.8214 25.4 23.2622 25.4C23.5872 25.4 24.1431 25.5646 25.4414 26.8289C26.9247 28.328 27.1688 29 28.0038 29H30.1913C30.8163 29 31.1296 28.6846 30.9496 28.0606C30.7513 27.44 30.0429 26.5391 29.1038 25.4703C28.5938 24.8617 27.8288 24.206 27.5963 23.8777C27.2722 23.4569 27.3647 23.2691 27.5963 22.8946C27.5963 22.8946 30.2629 19.1009 30.5404 17.8126H30.5413Z" fill="#D9D9D9"/>
</svg>
