<svg width="24" height="24" viewBox="0 0 24 24" fill="none" xmlns="http://www.w3.org/2000/svg">
<path d="M12 22C17.523 22 22 17.523 22 12C22 6.477 17.523 2 12 2C6.477 2 2 6.477 2 12C2 17.523 6.477 22 12 22Z" stroke="#EEEDE8" stroke-width="1.5" stroke-linecap="round" stroke-linejoin="round"/>
<path fill-rule="evenodd" clip-rule="evenodd" d="M16.9615 14.1078C16.9615 14.1078 18.0934 15.2252 18.3734 15.7423C18.3788 15.7497 18.3831 15.758 18.386 15.7667C18.5001 15.9578 18.5281 16.1075 18.4721 16.218C18.3776 16.4006 18.0577 16.4923 17.9492 16.5H15.9486C15.8093 16.5 15.5195 16.4636 15.1667 16.2201C14.8972 16.0319 14.6291 15.722 14.3694 15.419C13.9816 14.9691 13.6463 14.5787 13.3068 14.5787C13.2639 14.5786 13.2213 14.5857 13.1808 14.5997C12.9239 14.6809 12.5977 15.0468 12.5977 16.0214C12.5977 16.3265 12.3569 16.5 12.1882 16.5H11.2719C10.9597 16.5 9.33427 16.3909 7.89297 14.8719C6.12686 13.0122 4.54066 9.28153 4.52526 9.24864C4.42656 9.00726 4.63376 8.87572 4.85776 8.87572H6.87797C7.14887 8.87572 7.23707 9.03944 7.29867 9.18637C7.37007 9.35499 7.63467 10.0295 8.06867 10.7872C8.77147 12.02 9.20337 12.5217 9.54847 12.5217C9.6133 12.5219 9.67704 12.505 9.73327 12.4727C10.1841 12.225 10.1001 10.6158 10.0791 10.2842C10.0791 10.2198 10.0784 9.56559 9.84737 9.24934C9.68217 9.02265 9.40077 8.93449 9.23067 8.90231C9.27617 8.83654 9.37277 8.73579 9.49667 8.67632C9.80537 8.52239 10.3633 8.5 10.917 8.5H11.2243C11.8249 8.5084 11.9803 8.54688 12.1987 8.60215C12.6383 8.7071 12.6467 8.99187 12.6082 9.96161C12.597 10.2387 12.5851 10.5507 12.5851 10.9181C12.5851 10.9964 12.5816 11.0839 12.5816 11.1727C12.5683 11.6702 12.5508 12.2306 12.9022 12.4608C12.9477 12.4892 13.0004 12.5042 13.0541 12.5042C13.1759 12.5042 13.5406 12.5042 14.5297 10.8075C14.9637 10.0582 15.2997 9.17448 15.3228 9.10801C15.3424 9.07093 15.4012 8.96668 15.4726 8.9247C15.5234 8.89769 15.5803 8.88419 15.6378 8.88552H18.0143C18.2733 8.88552 18.449 8.9247 18.4833 9.02265C18.5407 9.18148 18.4721 9.66635 17.3871 11.1328C17.2044 11.377 17.0441 11.5883 16.9034 11.773C15.9199 13.0632 15.9199 13.1283 16.9615 14.1078V14.1078Z" stroke="#EEEDE8" stroke-width="1.2"/>
</svg>
