<svg width="24" height="24" viewBox="0 0 24 24" fill="none" xmlns="http://www.w3.org/2000/svg">
<path d="M15.6439 11.4035C15.6559 9.91148 14.4249 8.54348 12.8999 8.35448L12.7999 8.33948C12.7235 8.32429 12.6458 8.31559 12.5679 8.31348C12.2549 8.31348 12.1719 8.53948 12.1499 8.67448C12.1374 8.73054 12.1363 8.78854 12.1466 8.84505C12.1569 8.90156 12.1785 8.95542 12.2099 9.00348C12.3139 9.14848 12.4959 9.17348 12.6419 9.19548C12.6849 9.20148 12.7259 9.20648 12.7589 9.21548C14.1299 9.53048 14.5919 10.0275 14.8169 11.4305C14.8229 11.4655 14.8249 11.5075 14.8269 11.5525C14.8369 11.7195 14.8579 12.0685 15.2219 12.0685C15.2519 12.0685 15.2839 12.0665 15.3179 12.0605C15.6569 12.0075 15.6459 11.6885 15.6409 11.5355C15.6384 11.4985 15.6384 11.4614 15.6409 11.4245C15.642 11.4179 15.6427 11.4112 15.6429 11.4045L15.6439 11.4035Z" fill="#EEEDE8"/>
<path d="M12.4799 7.80689C12.5199 7.80989 12.5599 7.81289 12.5909 7.81789C14.8409 8.17589 15.8769 9.27589 16.1639 11.6179C16.1689 11.6579 16.1689 11.7059 16.1699 11.7579C16.1729 11.9409 16.1789 12.3209 16.5749 12.3289H16.5869C16.6413 12.3318 16.6956 12.323 16.7463 12.3032C16.797 12.2833 16.8429 12.2529 16.8809 12.2139C17.0039 12.0809 16.9959 11.8839 16.9889 11.7239C16.9869 11.6859 16.9849 11.6489 16.9859 11.6169C17.0139 9.22189 15.0059 7.04989 12.6879 6.96989L12.6599 6.97089C12.6509 6.97221 12.6419 6.97287 12.6329 6.97289C12.6099 6.97289 12.5809 6.97089 12.5509 6.96889C12.511 6.96524 12.4709 6.96324 12.4309 6.96289C12.0619 6.96289 11.9919 7.23289 11.9829 7.39489C11.9629 7.76789 12.3119 7.79489 12.4799 7.80689V7.80689ZM16.0549 14.6439C16.0067 14.6062 15.9591 14.5678 15.9119 14.5289C15.6659 14.3249 15.4039 14.1369 15.1519 13.9549C15.0992 13.917 15.0465 13.879 14.9939 13.8409C14.6699 13.6069 14.3789 13.4919 14.1039 13.4919C13.7339 13.4919 13.4109 13.7039 13.1439 14.1209C13.0259 14.3049 12.8819 14.3949 12.7059 14.3949C12.583 14.3905 12.4626 14.3595 12.3529 14.3039C11.3079 13.8139 10.5609 13.0639 10.1339 12.0739C9.92788 11.5939 9.99388 11.2819 10.3579 11.0269C10.5639 10.8829 10.9479 10.6139 10.9209 10.0989C10.8909 9.51389 9.63988 7.75389 9.11288 7.55389C8.88808 7.46905 8.64017 7.46834 8.41488 7.55189C7.80988 7.76189 7.37488 8.13189 7.15788 8.61889C6.94788 9.09089 6.95788 9.64389 7.18588 10.2199C7.84288 11.8859 8.76588 13.3379 9.93188 14.5359C11.0719 15.7089 12.4739 16.6689 14.0979 17.3909C14.2439 17.4559 14.3979 17.4909 14.5099 17.5169L14.6049 17.5409C14.6179 17.5446 14.6313 17.5466 14.6449 17.5469H14.6579C15.4219 17.5469 16.3389 16.8269 16.6209 16.0049C16.8679 15.2849 16.4169 14.9299 16.0549 14.6449V14.6439ZM12.8179 9.70989C12.6879 9.71289 12.4149 9.71989 12.3189 10.0059C12.2749 10.1399 12.2799 10.2559 12.3349 10.3509C12.4159 10.4909 12.5719 10.5339 12.7129 10.5569C13.2249 10.6419 13.4889 10.9349 13.5409 11.4769C13.5659 11.7309 13.7309 11.9069 13.9429 11.9069C13.9589 11.9072 13.9749 11.9066 13.9909 11.9049C14.2459 11.8729 14.3689 11.6799 14.3579 11.3299C14.3619 10.9639 14.1769 10.5499 13.8619 10.2199C13.5459 9.88789 13.1649 9.70089 12.8179 9.70989V9.70989Z" fill="#EEEDE8"/>
<path d="M12 22C17.523 22 22 17.523 22 12C22 6.477 17.523 2 12 2C6.477 2 2 6.477 2 12C2 17.523 6.477 22 12 22Z" stroke="#EEEDE8" stroke-width="1.5" stroke-linecap="round" stroke-linejoin="round"/>
</svg>
