<svg width="24" height="24" viewBox="0 0 24 24" fill="none" xmlns="http://www.w3.org/2000/svg">
<path d="M21 12C21 16.9707 16.9707 21 12 21C10.5631 21 9.20495 20.6633 8 20.0645L3.5 22L4.66677 17.219C3.61731 15.747 3 13.9456 3 12C3 7.0293 7.0293 3 12 3C16.9707 3 21 7.0293 21 12Z" stroke="#EEEDE8" stroke-width="1.5" stroke-linecap="round" stroke-linejoin="round"/>
<path d="M16.8619 14.045L14.9309 13.495C14.8063 13.4592 14.6744 13.4576 14.5489 13.4903C14.4235 13.5231 14.3092 13.5889 14.2179 13.681L13.7459 14.159C13.6483 14.2579 13.5236 14.3259 13.3875 14.3543C13.2515 14.3828 13.11 14.3705 12.9809 14.319C12.0679 13.952 10.1459 12.256 9.65491 11.407C9.58608 11.2871 9.55464 11.1493 9.56462 11.0114C9.5746 10.8735 9.62554 10.7418 9.71091 10.633L10.1229 10.103C10.2022 10.0015 10.2524 9.88023 10.2681 9.75234C10.2838 9.62445 10.2644 9.4947 10.2119 9.377L9.39991 7.553C9.35399 7.45105 9.28504 7.36114 9.1985 7.29034C9.11195 7.21954 9.01016 7.16979 8.90113 7.14498C8.79211 7.12017 8.67881 7.12098 8.57015 7.14736C8.46149 7.17374 8.36043 7.22496 8.27491 7.297C7.73591 7.75 7.09591 8.437 7.01891 9.2C6.88191 10.543 7.46191 12.236 9.65591 14.27C12.1909 16.619 14.2219 16.93 15.5429 16.611C16.2929 16.431 16.8929 15.708 17.2699 15.117C17.3302 15.0231 17.3676 14.9164 17.3792 14.8054C17.3907 14.6945 17.3761 14.5823 17.3364 14.4781C17.2967 14.3738 17.2331 14.2803 17.1507 14.2051C17.0683 14.1299 16.9694 14.075 16.8619 14.045V14.045Z" fill="#EEEDE8"/>
</svg>
