<svg width="83" height="83" viewBox="0 0 83 83" fill="none" xmlns="http://www.w3.org/2000/svg">
<path d="M41.5 5.1875C21.4471 5.1875 5.1875 21.4471 5.1875 41.5C5.1875 61.5529 21.4471 77.8125 41.5 77.8125C61.5529 77.8125 77.8125 61.5529 77.8125 41.5C77.8125 21.4471 61.5529 5.1875 41.5 5.1875ZM41.5 71.6523C24.8514 71.6523 11.3477 58.1486 11.3477 41.5C11.3477 24.8514 24.8514 11.3477 41.5 11.3477C58.1486 11.3477 71.6523 24.8514 71.6523 41.5C71.6523 58.1486 58.1486 71.6523 41.5 71.6523Z" fill="#FFCB74"/>
<path d="M58.3108 40.4544L34.3105 23.0276C34.118 22.8865 33.8901 22.8017 33.6522 22.7825C33.4143 22.7633 33.1757 22.8105 32.9631 22.9189C32.7505 23.0273 32.5722 23.1927 32.448 23.3965C32.3238 23.6003 32.2586 23.8346 32.2598 24.0732V58.9268C32.2598 59.9886 33.4594 60.5884 34.3105 59.9724L58.3108 42.5456C58.4765 42.4262 58.6114 42.2691 58.7045 42.0873C58.7976 41.9056 58.8461 41.7042 58.8461 41.5C58.8461 41.2958 58.7976 41.0945 58.7045 40.9127C58.6114 40.7309 58.4765 40.5738 58.3108 40.4544ZM37.4311 51.3157V31.6843L50.9429 41.5L37.4311 51.3157Z" fill="#FFCB74"/>
</svg>
