<svg width="38" height="25" fill="none" xmlns="http://www.w3.org/2000/svg"><path fill-rule="evenodd" clip-rule="evenodd" d="M38 12.5c0 .368-.143.722-.398.982-.254.26-.6.407-.96.407H4.636l8.542 8.737c.255.261.398.615.398.983 0 .37-.143.723-.398.984a1.34 1.34 0 01-1.921 0L.398 13.483A1.392 1.392 0 010 12.5a1.416 1.416 0 01.399-.983L11.255.407c.255-.26.6-.407.96-.407.361 0 .707.146.962.407s.398.615.398.983c0 .37-.143.723-.398.984L4.635 11.11h32.008c.36 0 .705.147.96.407.254.26.397.614.397.982z" fill="#FFCB74"/></svg>