<svg width="38" height="25" fill="none" xmlns="http://www.w3.org/2000/svg"><path fill-rule="evenodd" clip-rule="evenodd" d="M0 12.5c0-.368.143-.722.397-.982.255-.26.6-.407.96-.407h32.008l-8.542-8.737a1.407 1.407 0 01-.398-.984c0-.368.143-.722.398-.983a1.34 1.34 0 011.921 0l10.857 11.11A1.39 1.39 0 0138 12.5a1.417 1.417 0 01-.399.983l-10.856 11.11c-.255.26-.6.407-.96.407-.361 0-.707-.146-.962-.407a1.407 1.407 0 01-.398-.983c0-.37.143-.723.398-.984l8.542-8.737H1.357c-.36 0-.705-.147-.96-.407A1.406 1.406 0 010 12.5z" fill="#FFCB74"/></svg>