<svg width="25" height="17" fill="none" xmlns="http://www.w3.org/2000/svg"><path fill-rule="evenodd" clip-rule="evenodd" d="M0 8.5c0-.25.094-.49.261-.668a.869.869 0 01.632-.276H21.95l-5.619-5.942a.974.974 0 01-.262-.668c0-.251.095-.492.262-.67A.87.87 0 0116.963 0c.237 0 .465.1.632.277l7.143 7.554a.992.992 0 010 1.337l-7.143 7.555a.87.87 0 01-.632.277.87.87 0 01-.632-.277.974.974 0 01-.262-.668c0-.251.095-.492.262-.67l5.62-5.94H.892a.869.869 0 01-.632-.277A.973.973 0 010 8.5z" fill="#7A400B"/></svg>