<svg width="38" height="25" viewBox="0 0 38 25" fill="none" xmlns="http://www.w3.org/2000/svg">
<path fill-rule="evenodd" clip-rule="evenodd" d="M38 12.5C38 12.8683 37.857 13.2215 37.6025 13.482C37.348 13.7424 37.0029 13.8887 36.6429 13.8887L4.63542 13.8887L13.1767 22.6264C13.4315 22.8871 13.5747 23.2408 13.5747 23.6095C13.5747 23.9783 13.4315 24.332 13.1767 24.5927C12.9219 24.8535 12.5763 25 12.2159 25C11.8556 25 11.51 24.8535 11.2551 24.5927L0.398686 13.4832C0.272309 13.3542 0.17204 13.2009 0.103627 13.0322C0.0352145 12.8635 1.07682e-06 12.6827 1.09278e-06 12.5C1.10875e-06 12.3173 0.0352146 12.1365 0.103627 11.9678C0.17204 11.799 0.27231 11.6458 0.398687 11.5168L11.2551 0.407249C11.51 0.14649 11.8556 -2.28562e-06 12.2159 -2.25411e-06C12.5763 -2.22261e-06 12.9219 0.14649 13.1767 0.407249C13.4315 0.66801 13.5747 1.02167 13.5747 1.39045C13.5747 1.75922 13.4315 2.11288 13.1767 2.37364L4.63542 11.1113L36.6429 11.1113C37.0029 11.1113 37.348 11.2576 37.6025 11.518C37.857 11.7785 38 12.1317 38 12.5Z" fill="#FFCB74"/>
</svg>
