<svg width="38" height="25" viewBox="0 0 38 25" fill="none" xmlns="http://www.w3.org/2000/svg">
<path fill-rule="evenodd" clip-rule="evenodd" d="M0 12.5C0 12.1317 0.142975 11.7785 0.397473 11.518C0.65197 11.2576 0.997143 11.1113 1.35706 11.1113L33.3646 11.1113L24.8233 2.37364C24.5685 2.11288 24.4253 1.75922 24.4253 1.39045C24.4253 1.02168 24.5685 0.668012 24.8233 0.407253C25.0781 0.146493 25.4237 8.68851e-09 25.7841 0C26.1444 -8.68852e-09 26.49 0.146493 26.7449 0.407253L37.6013 11.5168C37.7277 11.6458 37.828 11.799 37.8964 11.9678C37.9648 12.1365 38 12.3173 38 12.5C38 12.6827 37.9648 12.8635 37.8964 13.0322C37.828 13.201 37.7277 13.3542 37.6013 13.4832L26.7449 24.5927C26.49 24.8535 26.1444 25 25.7841 25C25.4237 25 25.0781 24.8535 24.8233 24.5927C24.5685 24.332 24.4253 23.9783 24.4253 23.6096C24.4253 23.2408 24.5685 22.8871 24.8233 22.6264L33.3646 13.8887L1.35706 13.8887C0.997143 13.8887 0.65197 13.7424 0.397473 13.482C0.142975 13.2215 0 12.8683 0 12.5Z" fill="#FFCB74"/>
</svg>
